<svg xmlns="http://www.w3.org/2000/svg" width="19.415" height="24" viewBox="0 0 19.415 24">
  <g id="Player_Icon" data-name="Player Icon" transform="translate(1 6)">
    <g id="Group_880" data-name="Group 880" transform="translate(-1 -6)">
      <g id="Ellipse_508" data-name="Ellipse 508" transform="translate(4.958)" fill="none" stroke="#fff" stroke-linejoin="round" stroke-width="1">
        <circle cx="4.617" cy="4.617" r="4.617" stroke="none"/>
        <circle cx="4.617" cy="4.617" r="4.117" fill="none"/>
      </g>
      <g id="Path_322" data-name="Path 322" transform="translate(3.588 10.553)" fill="none" stroke-linejoin="round">
        <path d="M0,0H11.975l-1.4,13.447H1.4Z" stroke="none"/>
        <path d="M 1.109236717224121 1.000001907348633 L 2.298150062561035 12.44746112823486 L 9.67642879486084 12.44746112823486 L 10.86534309387207 1.000001907348633 L 1.109236717224121 1.000001907348633 M -9.5367431640625e-07 1.9073486328125e-06 L 11.97457981109619 1.9073486328125e-06 L 10.57794952392578 13.44746112823486 L 1.396629333496094 13.44746112823486 L -9.5367431640625e-07 1.9073486328125e-06 Z" stroke="none" fill="#fff"/>
      </g>
      <g id="Intersection_2" data-name="Intersection 2" transform="translate(19.415 20.938) rotate(180)" fill="none" stroke-linejoin="round">
        <path d="M1.4,10.619,0,0H19.415l-1.4,10.619Z" stroke="none"/>
        <path d="M 17.13844680786133 9.619316101074219 L 18.27458190917969 0.9999961256980896 L 1.140457391738892 0.9999961256980896 L 2.276592254638672 9.619316101074219 L 17.13844680786133 9.619316101074219 M 18.01527976989746 10.61931610107422 L 1.399759531021118 10.61931610107422 L -4.68749988158379e-07 -3.856811417790595e-06 L 19.4150390625 -3.856811417790595e-06 L 18.01527976989746 10.61931610107422 Z" stroke="none" fill="#fff"/>
      </g>
      <line id="Line_527" data-name="Line 527" x2="4" transform="translate(0.501 17.5)" fill="none" stroke="#fff" stroke-width="1"/>
      <line id="Line_528" data-name="Line 528" x2="4" transform="translate(14.501 17.5)" fill="none" stroke="#fff" stroke-width="1"/>
    </g>
  </g>
</svg>
