<svg id="Settings_Icon" data-name="Settings Icon" xmlns="http://www.w3.org/2000/svg" width="21.037" height="21.778" viewBox="0 0 21.037 21.778">
  <g id="Ellipse_513" data-name="Ellipse 513" transform="translate(6.069 6.44)" fill="none" stroke="#fff" stroke-linecap="round" stroke-linejoin="round" stroke-width="1">
    <circle cx="4.449" cy="4.449" r="4.449" stroke="none"/>
    <circle cx="4.449" cy="4.449" r="3.949" fill="none"/>
  </g>
  <g id="Union_6" data-name="Union 6" fill="none" stroke-linecap="round">
    <path d="M8.341,21.778V19.326A8.7,8.7,0,0,1,4.3,16.993L2.178,18.22,0,14.447l2.123-1.226a8.771,8.771,0,0,1,0-4.666L0,7.331,2.178,3.558,4.3,4.785A8.7,8.7,0,0,1,8.341,2.452V0H12.7V2.452a8.7,8.7,0,0,1,4.038,2.333L18.86,3.558l2.178,3.772L18.914,8.556a8.771,8.771,0,0,1,0,4.666l2.123,1.226L18.86,18.22l-2.125-1.227A8.7,8.7,0,0,1,12.7,19.326v2.452Z" stroke="none"/>
    <path d="M 11.6961841583252 20.77804374694824 L 11.6961841583252 19.32601356506348 L 11.6961841583252 18.55083274841309 L 12.4468936920166 18.35758209228516 C 13.79960346221924 18.00937271118164 15.03537368774414 17.29506301879883 16.02061462402344 16.29187202453613 L 16.56329345703125 15.73931312561035 L 17.23403358459473 16.12652206420898 L 18.49345588684082 16.85357284545898 L 19.67113304138184 14.81356811523438 L 18.41410446166992 14.08789253234863 L 17.74350357055664 13.7007532119751 L 17.9504337310791 12.95460319519043 C 18.13593292236328 12.28574275970459 18.22998428344727 11.59078311920166 18.22998428344727 10.88902282714844 C 18.22998428344727 10.1872730255127 18.13593292236328 9.492302894592285 17.95044326782227 8.823432922363281 L 17.7435245513916 8.077282905578613 L 18.41411399841309 7.690152645111084 L 19.67113494873047 6.964479446411133 L 18.49345588684082 4.924472332000732 L 17.23403358459473 5.651522636413574 L 16.56328392028809 6.038733005523682 L 16.02060317993164 5.486162662506104 C 15.03538417816162 4.482972621917725 13.79961395263672 3.768662929534912 12.44690418243408 3.420462846755981 L 11.6961841583252 3.227222919464111 L 11.6961841583252 2.452032804489136 L 11.6961841583252 1.000002861022949 L 9.340963363647461 1.000002861022949 L 9.340963363647461 2.452022790908813 L 9.340963363647461 3.227202892303467 L 8.590253829956055 3.420452833175659 C 7.237533569335938 3.768662929534912 6.001753807067871 4.482972621917725 5.016523838043213 5.486162662506104 L 4.473843574523926 6.038733005523682 L 3.803103685379028 5.651522636413574 L 2.543697357177734 4.924474716186523 L 1.366015315055847 6.964479446411133 L 2.623023748397827 7.690142631530762 L 3.29361367225647 8.077272415161133 L 3.08669376373291 8.823422431945801 C 2.901213645935059 9.49227237701416 2.807163715362549 10.18724250793457 2.807163715362549 10.88902282714844 C 2.807163715362549 11.5908031463623 2.901213645935059 12.28577327728271 3.086703777313232 12.95461273193359 L 3.293633699417114 13.70077323913574 L 2.623033761978149 14.08790302276611 L 1.366016387939453 14.81356811523438 L 2.543698310852051 16.85357284545898 L 3.803113698959351 16.12652206420898 L 4.47386360168457 15.73930263519287 L 5.016543865203857 16.29188346862793 C 6.001753807067871 17.29506301879883 7.237523555755615 18.00936317443848 8.590253829956055 18.35758209228516 L 9.340963363647461 18.55083274841309 L 9.340963363647461 19.32601356506348 L 9.340963363647461 20.77804374694824 L 11.6961841583252 20.77804374694824 M 12.6961841583252 21.77804374694824 L 8.340963363647461 21.77804374694824 L 8.340963363647461 19.32601356506348 C 6.784073829650879 18.92524337768555 5.395383834838867 18.10480308532715 4.303073883056641 16.99257278442383 L 2.177613735198975 18.21958351135254 L 3.760986373890773e-06 14.44748306274414 L 2.123073816299438 13.22185325622559 C 1.917143702507019 12.47930240631104 1.807163715362549 11.69711303710938 1.807163715362549 10.88902282714844 C 1.807163715362549 10.0809326171875 1.917143702507019 9.298732757568359 2.123063802719116 8.556192398071289 L 3.760986373890773e-06 7.330562591552734 L 2.177613735198975 3.558462858200073 L 4.303063869476318 4.785472869873047 C 5.395383834838867 3.673242807388306 6.784073829650879 2.852792739868164 8.340963363647461 2.452022790908813 L 8.340963363647461 2.827148364303866e-06 L 12.6961841583252 2.827148364303866e-06 L 12.6961841583252 2.452032804489136 C 14.25308418273926 2.852792739868164 15.64176368713379 3.673242807388306 16.73407363891602 4.785472869873047 L 18.85954284667969 3.558462858200073 L 21.03714370727539 7.330562591552734 L 18.9140739440918 8.55620288848877 C 19.11999320983887 9.29874324798584 19.22998428344727 10.0809326171875 19.22998428344727 10.88902282714844 C 19.22998428344727 11.69711303710938 19.11999320983887 12.47930240631104 18.91406440734863 13.22184276580811 L 21.03714370727539 14.44748306274414 L 18.85954284667969 18.21958351135254 L 16.73407363891602 16.99257278442383 C 15.64175415039063 18.10479354858398 14.25308418273926 18.92524337768555 12.6961841583252 19.32601356506348 L 12.6961841583252 21.77804374694824 Z" stroke="none" fill="#fff"/>
  </g>
</svg>
